<?xml version="1.0" standalone="no"?>
<!DOCTYPE svg PUBLIC "-//W3C//DTD SVG 20010904//EN"
 "http://www.w3.org/TR/2001/REC-SVG-20010904/DTD/svg10.dtd">
<svg version="1.0" xmlns="http://www.w3.org/2000/svg"
 width="626.000000pt" height="626.000000pt" viewBox="0 0 626.000000 626.000000"
 preserveAspectRatio="xMidYMid meet">
<metadata>
Created by potrace 1.14, written by Peter Selinger 2001-2017
</metadata>
<g transform="translate(0.000000,626.000000) scale(0.100000,-0.100000)"
fill="#000000" stroke="none">
<path d="M5727 5820 c-34 -4 -88 -22 -131 -44 -69 -34 -112 -74 -749 -712
-372 -371 -697 -699 -723 -727 -78 -86 -117 -200 -113 -323 l3 -73 -151 -151
-152 -150 -93 61 c-173 114 -316 176 -533 233 -152 40 -248 51 -450 51 -136
-1 -218 -6 -290 -19 -496 -88 -905 -355 -1190 -779 -46 -69 -63 -86 -77 -81
-10 3 -43 6 -72 7 -83 2 -87 -5 -84 -142 3 -109 4 -117 26 -126 12 -5 22 -16
22 -23 0 -34 -33 -84 -74 -114 -25 -17 -46 -37 -46 -43 0 -22 13 -25 38 -9 13
8 26 13 30 10 3 -3 -2 -38 -12 -76 -20 -85 -46 -292 -46 -375 0 -33 7 -116 16
-185 9 -69 19 -174 22 -234 5 -75 11 -111 20 -114 24 -8 40 -32 58 -84 26 -81
117 -265 168 -343 l46 -70 -37 -32 c-30 -25 -35 -34 -26 -44 10 -9 19 -6 47
14 19 15 37 27 40 27 3 0 7 -53 8 -118 2 -96 6 -117 18 -117 12 0 16 18 18 87
l3 87 64 -70 c286 -312 642 -500 1075 -570 106 -17 405 -14 510 5 431 77 739
239 1032 541 l67 70 1 -57 c0 -72 19 -88 102 -88 83 0 88 8 88 140 0 119 -9
140 -57 140 -31 0 -30 3 36 114 26 45 52 92 55 104 13 40 26 23 26 -33 0 -74
20 -95 93 -95 31 0 61 6 75 16 21 14 22 23 22 129 0 132 -2 135 -91 135 -44 0
-51 2 -46 18 3 9 17 60 32 112 45 157 62 203 79 212 14 8 16 -4 16 -112 0
-110 2 -121 18 -118 15 3 17 18 19 123 2 66 0 131 -3 144 -5 23 -13 24 -55 7
-14 -6 -15 1 -7 60 4 37 12 72 18 78 6 6 10 67 10 147 0 112 -3 138 -15 143
-20 7 -21 76 -1 76 33 0 46 41 46 140 0 121 -11 140 -78 140 l-48 0 -32 85
c-26 69 -32 100 -32 163 0 100 -13 124 -70 138 -41 9 -50 17 -92 81 l-48 72
153 151 152 152 100 2 c110 3 168 20 253 75 26 16 363 346 749 733 756 757
731 729 769 871 39 148 -10 315 -127 429 -106 104 -240 147 -392 128z m-2879
-2356 c110 -17 270 -68 364 -115 77 -38 218 -132 249 -165 l22 -24 -102 0
c-115 0 -161 -14 -180 -56 -7 -16 -11 -95 -11 -219 l0 -193 31 -31 31 -31 121
0 c128 1 138 4 170 50 15 21 17 53 17 220 l1 195 40 -45 c96 -107 203 -293
248 -430 22 -68 52 -202 47 -207 -2 -2 -15 1 -30 7 -41 15 -201 13 -242 -5
-55 -23 -64 -57 -64 -247 0 -208 7 -233 67 -260 39 -17 62 -20 144 -16 55 2
99 2 99 -1 0 -23 -43 -140 -54 -144 -19 -7 -182 -125 -195 -141 -16 -19 -3
-46 23 -46 11 0 41 14 66 30 25 16 48 30 52 30 13 0 -63 -123 -121 -195 -57
-71 -192 -207 -199 -201 -2 3 2 14 8 26 8 14 10 83 8 215 l-3 195 -28 27 c-26
27 -33 28 -138 31 -194 6 -199 -1 -199 -263 0 -262 5 -269 198 -263 60 2 108
0 105 -5 -7 -12 -107 -74 -170 -106 -274 -137 -559 -173 -855 -107 -165 38
-286 89 -427 181 -112 74 -117 80 -103 107 10 18 12 75 10 221 l-3 197 -28 27
c-26 27 -32 28 -140 31 -107 3 -114 2 -151 -23 -21 -14 -39 -25 -40 -23 -12
18 -59 161 -75 224 -30 119 -38 213 -30 370 10 198 48 338 141 519 51 100 58
102 58 12 0 -99 17 -143 64 -162 46 -19 195 -20 240 -1 63 26 66 38 66 257 0
196 0 198 -25 227 -15 17 -41 34 -63 39 l-37 9 70 51 c268 197 619 281 953
227z m-971 -384 c17 -34 17 -306 0 -340 -12 -24 -18 -25 -104 -28 -125 -4
-123 -6 -123 161 l0 132 46 53 46 53 61 -3 c54 -3 63 -6 74 -28z m1601 -2 c8
-8 12 -65 12 -190 0 -206 6 -196 -109 -196 -129 0 -121 -13 -121 202 0 138 3
186 13 189 26 11 193 7 205 -5z m758 -13 c10 -41 -2 -52 -19 -18 -21 39 -21
43 -2 43 8 0 17 -11 21 -25z m-3168 -6 c2 -9 -16 -56 -39 -103 -57 -116 -73
-114 -77 8 -2 49 0 96 2 103 9 21 110 14 114 -8z m3366 -375 c3 -9 6 -46 6
-84 0 -38 -3 -75 -6 -84 -10 -25 -33 -18 -39 12 -4 15 -13 55 -21 89 -8 34
-14 67 -14 73 0 17 67 12 74 -6z m-584 -334 c21 -13 22 -352 2 -372 -20 -20
-200 -18 -212 2 -15 23 -13 353 2 368 14 14 186 16 208 2z m-2082 -692 c14
-14 17 -354 3 -362 -11 -7 -121 120 -177 205 -49 74 -60 139 -26 158 25 15
185 14 200 -1z m1610 -20 c19 -19 17 -352 -2 -367 -9 -8 -48 -11 -112 -9 l-99
3 -3 180 c-1 98 0 185 2 192 7 18 197 18 214 1z m1030 -106 c9 -6 12 -34 10
-103 l-3 -94 -54 -3 c-37 -2 -57 1 -62 10 -5 7 -9 48 -9 90 0 56 4 81 16 92
16 17 80 21 102 8z m-240 -469 c3 -86 1 -93 -19 -104 -26 -13 -89 -5 -101 13
-4 7 -8 41 -8 74 0 84 24 116 84 112 l41 -3 3 -92z"/>
<path d="M2250 3164 c-36 -25 -82 -57 -102 -71 -40 -27 -51 -66 -22 -77 18 -7
37 2 113 55 l56 39 3 -225 c2 -204 4 -225 20 -234 44 -23 47 -7 50 263 3 263
-1 296 -36 296 -9 0 -46 -21 -82 -46z"/>
<path d="M2663 3159 c-47 -30 -55 -72 -51 -273 3 -189 8 -204 66 -232 26 -12
58 -15 139 -12 104 3 105 3 134 36 l29 32 0 195 c0 124 -4 203 -11 219 -19 41
-65 56 -176 56 -82 0 -103 -4 -130 -21z m231 -55 c14 -5 16 -31 16 -188 0
-128 -4 -186 -12 -194 -19 -19 -183 -16 -202 4 -13 13 -16 44 -16 184 0 206
-3 200 115 200 46 0 90 -3 99 -6z"/>
<path d="M1613 2447 c-23 -17 -70 -51 -103 -75 -63 -44 -72 -64 -38 -85 13 -9
30 -2 85 36 38 26 72 47 76 47 4 0 7 -96 7 -212 0 -117 4 -219 9 -226 4 -8 19
-12 32 -10 l24 3 3 264 c2 270 0 291 -37 291 -9 0 -35 -15 -58 -33z"/>
<path d="M3170 2395 c-100 -69 -121 -94 -100 -120 7 -8 16 -15 19 -15 4 0 41
22 82 50 l74 49 5 -227 c5 -214 6 -227 24 -230 42 -8 46 18 46 276 0 248 -5
282 -38 282 -9 0 -60 -29 -112 -65z"/>
<path d="M2019 2435 c-20 -9 -41 -27 -48 -41 -18 -40 -15 -397 4 -434 20 -39
75 -53 191 -48 153 7 164 24 164 268 0 247 -10 262 -175 267 -74 2 -110 -1
-136 -12z m225 -71 c13 -13 16 -44 16 -184 0 -206 3 -200 -115 -200 -46 0 -90
3 -99 6 -14 5 -16 32 -16 190 0 164 2 184 18 193 29 17 178 14 196 -5z"/>
<path d="M2600 2421 c-14 -4 -35 -22 -47 -40 -22 -32 -23 -43 -23 -218 0 -244
10 -262 147 -271 108 -7 161 4 195 40 l28 30 0 199 0 199 -29 32 -29 33 -109
2 c-59 1 -119 -1 -133 -6z m219 -70 c11 -7 13 -46 12 -187 -1 -154 -4 -181
-18 -191 -26 -20 -177 -17 -197 3 -13 13 -16 44 -16 188 0 120 4 176 12 184
14 14 185 17 207 3z"/>
<path d="M2115 1702 c-70 -49 -101 -76 -103 -92 -8 -50 38 -44 115 15 25 19
52 35 59 35 11 0 14 -45 16 -222 l3 -223 25 0 25 0 0 275 c0 267 -1 275 -20
278 -11 1 -63 -27 -120 -66z"/>
<path d="M2560 1718 c-19 -13 -37 -34 -41 -48 -11 -41 -10 -364 2 -398 16 -46
53 -65 135 -70 109 -7 162 4 196 40 l28 30 0 199 0 199 -29 32 -29 33 -114 3
c-105 3 -116 2 -148 -20z m238 -60 c17 -17 17 -359 0 -376 -19 -19 -183 -16
-202 4 -13 13 -16 44 -16 188 0 120 4 176 12 184 8 8 46 12 103 12 57 0 95 -4
103 -12z"/>
<path d="M403 3103 c-29 -20 -53 -43 -53 -50 0 -18 13 -16 54 7 23 14 36 17
41 10 4 -6 6 -52 5 -103 -3 -118 -3 -117 15 -117 13 0 15 23 15 145 0 109 -3
145 -12 145 -7 0 -37 -17 -65 -37z"/>
<path d="M4413 3103 c-29 -20 -53 -43 -53 -50 0 -18 13 -16 54 8 l36 21 0
-100 c0 -109 5 -132 26 -132 11 0 14 28 14 145 0 109 -3 145 -12 145 -7 0 -37
-17 -65 -37z"/>
<path d="M110 3119 c-13 -6 -28 -15 -32 -22 -4 -7 -8 -57 -8 -113 0 -130 5
-139 95 -139 59 0 69 3 87 25 17 21 19 36 16 123 -3 90 -5 101 -27 118 -25 21
-89 25 -131 8z m115 -134 l0 -100 -57 -3 -58 -3 0 99 c0 54 3 102 7 106 4 4
30 6 58 4 l50 -3 0 -100z"/>
<path d="M638 3110 c-27 -21 -28 -24 -28 -121 0 -55 5 -109 10 -119 13 -25 89
-36 140 -21 45 13 50 26 50 142 0 111 -13 130 -91 137 -45 3 -59 0 -81 -18z
m127 -125 l0 -100 -55 0 -55 0 -3 89 c-2 49 0 96 2 103 4 10 21 13 58 11 l53
-3 0 -100z"/>
<path d="M4646 3109 c-25 -20 -26 -24 -26 -123 0 -132 5 -139 93 -140 96 -1
102 7 102 140 0 99 -1 107 -24 125 -33 27 -110 26 -145 -2z m129 -124 l0 -100
-55 0 -55 0 -3 89 c-2 49 0 96 2 103 4 10 21 13 58 11 l53 -3 0 -100z"/>
<path d="M5253 3093 c-51 -35 -68 -63 -39 -63 7 0 25 9 39 20 44 34 47 28 47
-89 0 -107 10 -143 31 -110 10 16 12 239 3 263 -9 24 -23 20 -81 -21z"/>
<path d="M4961 3109 c-32 -12 -43 -54 -39 -151 4 -106 15 -122 85 -123 65 -1
100 12 107 38 8 29 7 176 0 204 -3 12 -16 26 -28 29 -31 11 -99 12 -125 3z
m114 -134 l0 -100 -55 0 -55 0 -3 89 c-2 49 0 96 2 103 4 10 21 13 58 11 l53
-3 0 -100z"/>
<path d="M4913 2713 c-50 -35 -64 -55 -44 -67 4 -3 23 6 42 20 l34 25 5 -115
c5 -114 11 -139 30 -120 14 14 9 286 -5 291 -5 1 -34 -14 -62 -34z"/>
<path d="M286 2724 c-13 -12 -16 -39 -16 -129 0 -133 1 -135 98 -135 85 0 92
10 92 142 0 89 -3 107 -18 121 -25 23 -134 24 -156 1z m139 -124 l0 -95 -60 0
-60 0 -3 84 c-2 46 0 91 2 98 4 10 21 13 63 11 l58 -3 0 -95z"/>
<path d="M587 2712 c-14 -15 -17 -40 -17 -124 0 -129 7 -138 96 -138 89 0 98
10 103 114 5 145 -8 166 -103 166 -48 0 -67 -4 -79 -18z m141 -116 c2 -49 -1
-93 -6 -98 -13 -13 -62 -20 -89 -13 -22 5 -23 9 -23 106 l0 100 58 -3 57 -3 3
-89z"/>
<path d="M4597 2712 c-26 -28 -25 -222 1 -245 24 -22 119 -23 150 -1 20 14 22
23 22 124 0 133 -4 140 -94 140 -48 0 -67 -4 -79 -18z m141 -115 c3 -103 -4
-117 -59 -117 -58 0 -69 18 -69 114 0 45 3 86 7 90 4 4 32 6 63 4 l55 -3 3
-88z"/>
<path d="M5136 2708 c-12 -17 -16 -48 -16 -125 0 -94 2 -103 22 -117 29 -20
127 -21 154 -2 17 13 19 27 19 126 0 134 -5 140 -101 140 -54 0 -65 -3 -78
-22z m144 -113 c0 -119 -4 -122 -117 -105 -2 0 -3 45 -3 100 l0 100 60 0 60 0
0 -95z"/>
<path d="M343 2344 c-29 -20 -53 -40 -53 -44 0 -21 22 -19 59 5 l40 25 3 -118
c2 -96 6 -117 18 -117 13 0 15 24 18 143 3 165 3 165 -85 106z"/>
<path d="M42 2354 c-20 -14 -22 -23 -22 -120 0 -139 3 -144 90 -144 96 0 100
5 100 140 0 101 -2 110 -22 124 -13 10 -43 16 -73 16 -30 0 -60 -6 -73 -16z
m130 -110 c4 -114 0 -124 -55 -124 -24 0 -48 5 -55 12 -13 13 -17 179 -5 191
3 4 30 7 59 7 l53 0 3 -86z"/>
<path d="M582 2354 c-20 -14 -22 -23 -22 -123 0 -134 5 -141 103 -141 84 0 87
5 87 144 0 97 -2 106 -22 120 -13 10 -43 16 -73 16 -30 0 -60 -6 -73 -16z
m136 -117 c3 -108 -3 -119 -67 -115 l-46 3 -3 103 -3 103 58 -3 58 -3 3 -88z"/>
<path d="M4592 2354 c-20 -14 -22 -23 -22 -120 0 -141 2 -144 95 -144 93 0 95
3 95 144 0 97 -2 106 -22 120 -13 10 -43 16 -73 16 -30 0 -60 -6 -73 -16z
m132 -40 c3 -9 6 -51 6 -94 0 -68 -3 -81 -19 -90 -25 -13 -88 -13 -96 0 -5 9
-8 104 -6 183 1 14 10 17 55 17 40 0 55 -4 60 -16z"/>
<path d="M5196 2335 c-25 -20 -46 -42 -46 -50 0 -21 10 -19 51 10 20 13 39 21
43 18 3 -4 6 -57 6 -120 0 -94 3 -113 15 -113 13 0 15 23 15 145 0 168 -3 171
-84 110z"/>
<path d="M4886 2338 c-12 -17 -16 -48 -16 -118 0 -129 8 -140 99 -140 39 0 72
5 79 12 8 8 12 50 12 124 0 138 -4 144 -95 144 -55 0 -66 -3 -79 -22z m139
-123 l0 -100 -55 0 -55 0 -5 86 c-7 124 -9 120 58 117 l57 -3 0 -100z"/>
<path d="M383 1934 c-29 -19 -53 -41 -53 -49 0 -22 22 -18 61 10 l34 26 5
-118 c4 -96 8 -118 20 -118 13 0 15 22 15 140 0 162 -1 163 -82 109z"/>
<path d="M75 1935 c-23 -22 -25 -32 -25 -117 0 -127 8 -138 100 -138 92 0 100
11 100 141 0 93 -1 98 -26 118 -39 31 -117 29 -149 -4z m133 -117 l-3 -103
-55 0 -55 0 -3 89 c-2 49 -1 95 2 103 4 9 24 13 61 13 l56 0 -3 -102z"/>
<path d="M630 1948 c-24 -13 -25 -17 -28 -127 -2 -75 1 -118 9 -127 18 -22
141 -19 162 4 22 24 24 208 3 237 -17 23 -110 32 -146 13z m124 -44 c3 -9 6
-51 6 -94 0 -92 -8 -102 -77 -98 l-48 3 -3 89 c-2 49 -1 95 2 103 8 20 112 18
120 -3z"/>
<path d="M4644 1951 c-12 -5 -25 -15 -29 -21 -11 -18 -6 -222 6 -237 18 -21
142 -17 162 5 22 24 24 208 3 237 -15 21 -107 31 -142 16z m114 -133 l-3 -103
-55 0 -55 0 -3 89 c-2 49 -1 95 2 103 4 9 24 13 61 13 l56 0 -3 -102z"/>
<path d="M5250 1934 c-63 -44 -73 -55 -62 -66 8 -8 23 -4 51 15 l40 27 3 -117
c3 -103 5 -118 21 -121 16 -3 17 9 17 142 0 164 -2 168 -70 120z"/>
<path d="M4932 1934 c-20 -14 -22 -23 -22 -120 0 -141 2 -144 95 -144 93 0 95
3 95 144 0 97 -2 106 -22 120 -13 10 -43 16 -73 16 -30 0 -60 -6 -73 -16z
m132 -40 c11 -29 7 -169 -6 -182 -18 -18 -105 -15 -112 4 -8 21 -8 179 1 187
3 4 30 7 59 7 38 0 53 -4 58 -16z"/>
<path d="M883 1542 c-29 -20 -53 -43 -53 -49 0 -19 32 -15 60 7 14 11 28 20
32 20 4 0 9 -52 10 -115 4 -168 22 -147 26 30 2 113 0 145 -10 145 -7 -1 -37
-18 -65 -38z"/>
<path d="M4893 1542 c-52 -37 -67 -62 -37 -62 9 0 27 9 41 20 14 11 29 20 34
20 5 0 10 -52 11 -115 4 -169 23 -148 23 27 0 86 -4 142 -10 144 -5 2 -34 -14
-62 -34z"/>
<path d="M267 1552 c-14 -15 -17 -40 -17 -120 0 -89 3 -105 20 -122 23 -23
102 -28 145 -8 25 11 25 12 25 129 0 138 -1 139 -98 139 -44 0 -63 -5 -75 -18z
m131 -20 c9 -6 12 -34 10 -103 l-3 -94 -56 -3 c-54 -3 -57 -2 -63 24 -12 45
-4 154 11 170 16 15 80 19 101 6z"/>
<path d="M566 1538 c-12 -17 -16 -47 -16 -118 1 -122 8 -133 94 -138 55 -4 67
-1 85 17 18 18 21 33 21 119 0 131 -8 142 -100 142 -60 0 -71 -3 -84 -22z
m142 -116 l3 -103 -58 3 -58 3 -3 89 c-2 49 0 96 2 103 4 10 21 13 58 11 l53
-3 3 -103z"/>
<path d="M4577 1542 c-14 -15 -17 -40 -17 -120 0 -128 10 -142 99 -142 52 0
62 3 80 26 18 23 21 41 21 118 0 124 -9 136 -99 136 -53 0 -72 -4 -84 -18z
m141 -120 l3 -103 -58 3 -58 3 -3 89 c-2 49 0 96 2 103 4 10 21 13 58 11 l53
-3 3 -103z"/>
<path d="M5116 1538 c-16 -23 -23 -167 -10 -214 8 -29 44 -44 104 -44 78 0 90
18 90 138 0 131 -8 142 -100 142 -60 0 -71 -3 -84 -22z m142 -116 l3 -103 -58
3 -58 3 -3 89 c-2 49 0 96 2 103 4 10 21 13 58 11 l53 -3 3 -103z"/>
<path d="M328 1177 c-48 -32 -61 -57 -32 -57 9 0 27 9 41 20 14 11 30 20 34
20 5 0 9 -54 9 -121 0 -92 3 -120 13 -117 9 3 13 44 15 146 3 164 2 166 -80
109z"/>
<path d="M4338 1177 c-48 -32 -61 -57 -32 -57 9 0 27 9 41 20 14 11 30 20 34
20 5 0 9 -54 9 -121 0 -92 3 -120 13 -117 9 3 13 44 15 146 3 164 2 166 -80
109z"/>
<path d="M5193 1175 c-59 -39 -70 -52 -55 -67 7 -7 21 -2 45 16 18 14 37 26
40 26 4 0 8 -53 9 -117 2 -97 6 -118 18 -118 12 0 16 22 18 125 3 124 -1 170
-16 170 -4 0 -31 -16 -59 -35z"/>
<path d="M17 1182 c-14 -15 -17 -40 -17 -125 0 -98 2 -107 22 -121 14 -10 44
-16 80 -16 89 0 102 23 97 166 -5 104 -14 114 -104 114 -47 0 -66 -4 -78 -18z
m143 -121 c0 -109 -1 -111 -65 -111 -52 0 -65 20 -65 105 0 103 1 105 71 105
l59 0 0 -99z"/>
<path d="M560 1180 c-17 -17 -20 -33 -20 -120 0 -126 10 -140 98 -140 89 0 96
9 100 127 4 135 -3 147 -90 151 -57 2 -70 0 -88 -18z m140 -119 c0 -107 -2
-111 -60 -111 -58 0 -60 4 -60 111 l0 99 60 0 60 0 0 -99z"/>
<path d="M4566 1178 c-12 -17 -16 -48 -16 -120 0 -123 10 -138 98 -138 87 0
96 11 101 114 5 145 -7 166 -104 166 -55 0 -66 -3 -79 -22z m144 -117 c0 -107
-2 -111 -60 -111 -58 0 -60 4 -60 111 l0 99 60 0 60 0 0 -99z"/>
<path d="M868 1179 c-16 -9 -18 -26 -18 -126 0 -99 3 -118 18 -129 24 -19 122
-18 150 2 20 14 22 23 22 123 0 132 -6 141 -96 141 -32 0 -67 -5 -76 -11z
m132 -128 l0 -99 -37 -4 c-81 -10 -83 -8 -83 103 l0 99 60 0 60 0 0 -99z"/>
<path d="M4864 1165 c-13 -19 -15 -45 -12 -126 2 -86 6 -103 22 -115 27 -19
125 -18 154 2 20 14 22 23 22 123 0 134 -5 141 -103 141 -60 0 -68 -3 -83 -25z
m146 -114 c0 -106 -5 -116 -55 -106 -11 2 -30 4 -42 4 -22 1 -23 4 -23 101 l0
100 60 0 60 0 0 -99z"/>
</g>
</svg>
